<svg xmlns="http://www.w3.org/2000/svg" width="30" height="30" viewBox="0 0 30 30">
  <defs>
    <style>
      .cls-1 {
        fill: #393939;
        fill-rule: evenodd;
      }
    </style>
  </defs>
  <path class="cls-1" d="M1353.36,284.571v-0.892a2.681,2.681,0,0,0-2.68-2.679H1348v1.786h2.68a0.893,0.893,0,0,1,.89.893v13.392a4.46,4.46,0,0,0,3.12,4.234,3.119,3.119,0,1,0,5.81,1.57,3.157,3.157,0,0,0-.31-1.339h5.09a3.023,3.023,0,0,0-.32,1.339,3.125,3.125,0,1,0,3.13-3.125h-12.05a2.681,2.681,0,0,1-2.68-2.679V286.357h17.85V293.5a2.679,2.679,0,0,1-2.67,2.679h-11.61v1.785h11.61A4.466,4.466,0,0,0,1373,293.5v-8.929h-19.64Zm5.35,18.3a1.335,1.335,0,1,1-1.33-1.339A1.338,1.338,0,0,1,1358.71,302.875Zm10.72,0a1.34,1.34,0,1,1-1.34-1.339A1.341,1.341,0,0,1,1369.43,302.875Z" transform="translate(-1345.5 -278.5)"/>
</svg>
