<svg id="Layer_1" data-name="Layer 1" xmlns="http://www.w3.org/2000/svg" viewBox="0 0 30 30"><defs><style>.cls-1{fill:#393939;}</style></defs><title>Artboard 1</title><path class="cls-1" d="M15,.86A14.15,14.15,0,0,0,.86,15a14,14,0,0,0,.65,4.18l1.82-.87A12,12,0,0,1,2.86,15a12.14,12.14,0,1,1,22.4,6.45,10.58,10.58,0,0,0-5.15-6.87,5.88,5.88,0,1,0-10.24,0,10.58,10.58,0,0,0-5.15,6.87,10.47,10.47,0,0,0-.29,2.35c0,.21,0,.41,0,.61a14.24,14.24,0,0,0,2.45,2.18,14.06,14.06,0,0,0,16.15,0,14.24,14.24,0,0,0,2.44-2.18A14.11,14.11,0,0,0,15,.86ZM11.12,11.69a3.88,3.88,0,1,1,5.13,3.66,3.59,3.59,0,0,1-2.5,0,3.88,3.88,0,0,1-2.64-3.66ZM15,27.14a12.1,12.1,0,0,1-8.54-3.52,8.55,8.55,0,0,1,4.72-7.46,5.86,5.86,0,0,0,7.64,0,8.55,8.55,0,0,1,4.72,7.46A12.1,12.1,0,0,1,15,27.14Z"/></svg>