<svg xmlns="http://www.w3.org/2000/svg" width="120" height="120" viewBox="0 0 120 120">
  <defs>
    <style>
      .cls-1 {
        fill: #fff;
        fill-rule: evenodd;
      }
    </style>
  </defs>
  <path class="cls-1" d="M67.015,68.275a2.527,2.527,0,0,1-3.552,0L51.718,56.639A25.317,25.317,0,0,1,12.006,36.062a25.3,25.3,0,0,1,50.6,0,24.842,24.842,0,0,1-7.062,17.329l11.47,11.365A2.472,2.472,0,0,1,67.015,68.275Zm-29.709-52.3a20.091,20.091,0,1,0,20.277,20.09A20.207,20.207,0,0,0,37.307,15.972Z" transform="translate(20.125 20)"/>
</svg>
